<svg id="enTKN8v4JfC1" xmlns="http://www.w3.org/2000/svg" xmlns:xlink="http://www.w3.org/1999/xlink" viewBox="0 0 600 400" shape-rendering="geometricPrecision" text-rendering="geometricPrecision"><path d="M20.95752,192.745605q0-6.038574,6.727539-6.038574t6.727539,6.038574q0,2.877442-1.681885,4.478272t-5.045654,1.60083q-6.727539,0-6.727539-6.079102Zm12.887695,57.021973h-12.36084v-45.30957h12.36084v45.30957Z" transform="matrix(-3.277332-.000178-.000136 2.501464 128.552389-345.907838)" fill="#021cc2"/><path d="M60.663276,903.984375q-9.783089,0-17.050527-7.975825v-93.534749q7.453782,7.250759,13.603152,7.250759q9.503573,0,13.603154-23.021149t4.099579-71.963748v-496.676737h28.883407v495.951663q0,92.809668-10.901157,141.38973t-32.237608,48.580055ZM222.761614,748.093141l-3.820063-51.842901h-1.490756q-4.565441,28.27794-12.950948,43.6858t-19.100316,15.407853q-18.35494,0-27.672167-38.247733t-9.317229-110.030212v-264.29003h28.417545v236.737156q0,43.867076,4.006409,65.800607t12.764602,21.933538q11.926052,0,17.236872-30.996981t5.31082-102.779453v-190.694866h28.417545v405.317223h-21.802313ZM360.169297,627.7306q0,62.356499-11.134088,94.984896t-33.309091,32.628397q-11.367018,0-19.379834-5.981873t-15.000737-17.583081v-91.359521q7.919645,14.501511,17.842492,24.290035t17.469802,9.788517q15.466599,0,15.466599-34.803625q0-13.051356-2.049791-21.208457t-7.081092-18.489431-13.416808-24.108759q-12.019224-19.577041-17.656148-36.253773t-8.199161-38.24774-2.562237-53.11178q0-54.018122,10.761397-83.564956t30.513922-29.546826q18.8208,0,36.616706,31.903323l-8.571849,79.758312q-7.826472-13.051363-14.628049-21.389733t-13.882669-8.33837q-12.578258,0-12.578258,26.465263q0,14.864047,4.052993,25.740175t17.74932,32.265868q12.205568,19.214497,17.889078,35.891236t8.385505,38.429001t2.701997,51.842901Zm79.175009,39.516619q7.453782,0,17.889078-12.688826v82.296077q-10.621641,18.489423-26.088238,18.489423-17.050527,0-24.830414-33.534747t-7.779885-100.604225v-195.40786h-13.603152v-46.767371l15.652943-36.978846l8.199161-85.558916h18.168594v86.28399h29.162923v83.021144h-29.162923v195.40786q0,23.564954,3.400789,34.803625t8.991125,11.238672ZM490.19494,238.002505q0-54.01813,15.466599-54.01813t15.466599,54.01813q0,25.740182-3.866649,40.060417t-11.59995,14.320242q-15.466599,0-15.466599-54.380659Zm29.628785,510.090637h-28.417545v-405.317223h28.417545v405.317223Zm85.231207,7.250752q-48.63593,0-48.63593-207.734142q0-103.323258,13.230464-157.885194t37.921116-54.561935q18.075424,0,32.423954,27.552874l-8.385505,85.558909q-6.708404-10.513591-12.485086-17.220544t-11.553364-6.706946q-22.175001,0-22.175001,122.537763q0,118.912387,22.175001,118.912387q8.199161,0,15.187083-8.519638t13.975842-26.646524v94.62236q-6.89475,17.039276-13.929256,23.564954t-17.74932,6.525678ZM717.119755,413.833316q-9.037711,0-14.162187,22.296075t-5.869854,63.262841h39.877737q-.186346-40.966767-5.497166-63.262841t-14.348531-22.296075Zm4.006407,341.510577q-25.156514,0-39.318701-54.01813t-14.162187-152.990931q0-101.873111,13.090704-157.522664t36.197432-55.649546q22.081829,0,34.380571,48.942599t12.29874,135.226589v53.655586h-67.177214q.465862,47.129908,7.174266,73.595171t18.8208,26.465256q9.410401,0,17.795906-7.613296t17.516388-24.290027v85.558909q-7.453782,14.501511-15.932459,21.571001t-20.684247,7.069483Z" transform="matrix(.753272 0 0 0.431568 17.332055-32.359454)"/></svg>